<svg width="350" height="350" viewBox="0 0 350 350" fill="none" xmlns="http://www.w3.org/2000/svg">
<g clip-path="url(#clip0_109_2)">
<path d="M178.814 222.614C180.601 225.979 185.8 225.024 186.542 221.641C188.681 224.755 193.632 223.301 194.104 220.026C196.175 222.282 200.284 221.379 201.215 218.458C201.228 218.416 201.201 218.501 201.215 218.458C216.453 212.197 227.607 200.871 231.969 187.35C232.895 186.963 233.705 186.343 234.319 185.55C239.032 186.658 244.298 188.873 246.239 183.612C250.399 184.719 259.121 187.619 261.761 180.568C267.859 181.399 276.728 181.952 277.839 175.583C283.105 175.583 292.25 174.752 292.25 168.66C297.519 168.66 306.664 165.059 305.555 160.905C310.269 160.352 316.646 155.368 316.646 152.045C321.357 150.661 326.625 147.06 325.514 142.354C328.285 140.692 332.998 138.753 332.998 135.986C332.998 133.218 330.781 131.001 328.285 131.001C325.789 131.001 316.365 131.571 313.039 131.571C309.715 131.571 269.521 131.016 260.097 131.571C250.673 132.124 238.753 132.385 232.931 131.832C228.643 131.419 214.034 130.583 205.262 132.926C186.684 123.729 163.318 123.727 144.736 132.926C135.966 130.585 121.354 131.421 117.064 131.827C111.242 132.382 99.3246 132.119 89.8983 131.567C80.4743 131.012 40.2801 131.567 36.9543 131.567C33.6286 131.567 24.2046 130.996 21.7086 130.996C19.2127 130.996 17 133.213 17 135.981C17 138.751 21.7131 140.69 24.4857 142.35C23.3749 147.058 28.6434 150.657 33.3543 152.041C33.3543 155.363 39.7292 160.348 44.4423 160.901C43.3337 165.056 52.4811 168.655 57.7474 168.655C57.7474 174.745 66.8949 175.579 72.1611 175.579C73.2697 181.947 82.1406 181.395 88.2388 180.563C90.8787 187.617 99.6034 184.717 103.761 183.607C105.702 188.871 110.968 186.653 115.681 185.546C116.324 186.382 117.134 186.961 118.031 187.345C122.393 200.869 133.549 212.195 148.785 218.456C148.797 218.499 148.772 218.413 148.785 218.456C149.716 221.376 153.825 222.279 155.896 220.024C156.368 223.299 161.319 224.75 163.458 221.639C164.198 225.022 169.399 225.977 171.184 222.612C171.609 225.759 178.389 225.759 178.814 222.614V222.614Z" fill="black"/>
<path d="M127.046 186.658C128.676 190.38 133.828 189.605 136.913 188.444C141.028 194.698 147.873 199.788 156.3 202.864L149.606 214.199C136.593 208.536 126.96 199.056 122.715 187.893C124.218 187.727 125.682 187.31 127.046 186.658V186.658Z" fill="white"/>
<path d="M148.637 217.142C134.27 211.081 123.711 200.478 119.337 187.768C120.059 187.925 120.808 187.986 121.557 187.972C125.84 199.534 135.732 209.36 149.111 215.194C148.842 215.811 148.681 216.47 148.637 217.142V217.142ZM156.154 217.481C156.152 217.488 156.15 217.495 156.147 217.501C154.018 222.735 147.701 219.707 150.559 214.765L157.366 203.241C158.614 203.663 159.894 204.041 161.202 204.378C161.229 204.555 156.228 217.243 156.154 217.481V217.481ZM163.352 219.11C162.034 224.346 155.716 222.749 157.202 217.847L162.612 204.715C163.898 205.007 165.209 205.254 166.543 205.454C166.556 205.503 163.352 219.11 163.352 219.11V219.11ZM170.77 219.936C170.3 225.57 163.377 224.593 164.618 218.982C164.618 218.986 167.71 205.649 167.721 205.62C169.021 205.784 170.338 205.91 171.676 205.986C171.724 206.107 170.775 219.824 170.77 219.936V219.936ZM171.975 219.851C171.975 219.853 172.713 206.213 172.724 206.179C174.019 206.233 175.933 206.271 177.266 206.137C177.329 206.253 178.188 219.709 178.202 219.82C178.62 225.334 171.645 225.447 171.975 219.851V219.851ZM21.56 134.31C22.1807 133.836 23.5163 133.86 25.2051 133.766C33.7971 133.766 53.7559 134.321 57.6371 134.321C61.5182 134.321 88.9605 137.367 93.2554 138.753C95.1959 139.308 95.6119 141.244 93.2554 141.384C90.8988 141.523 61.6036 141.941 57.4459 141.941C54.2214 141.941 37.4489 141.885 27.755 139.964C22.5112 138.924 19.6959 135.729 21.56 134.31V134.31ZM30.9975 144.565C35.9873 144.704 60.9336 144.843 63.8455 144.704C66.7553 144.565 89.3472 143.32 91.9804 143.181C97.6762 142.882 99.52 145.416 93.505 146.782C90.4558 147.476 62.321 150.659 40.977 150.244C36.9564 150.383 31.553 148.305 30.1655 146.366C28.7804 144.428 30.305 144.565 30.9975 144.565V144.565ZM40.7004 153.705C44.1655 153.705 85.0501 150.659 93.6444 148.86C101.119 147.723 99.4324 151.56 96.4147 152.182C93.8782 152.706 63.5667 158.551 48.1838 158.827C43.0547 158.69 37.0958 153.842 40.7004 153.705V153.705ZM51.0935 162.289C55.9461 161.734 88.2387 156.612 96.9701 154.258C104.867 152.214 103.273 157.457 100.435 158.274C97.9078 159.002 70.3868 165.694 64.1221 166.029C61.4658 166.169 58.8024 165.989 56.1889 165.494C47.3383 163.727 51.0935 162.289 51.0935 162.289V162.289ZM64.1221 169.489C67.5872 168.797 95.7221 162.426 103.761 159.382C107.678 158.018 108.856 161.862 106.394 162.981C104.87 163.673 83.249 172.672 72.993 173.227C69.2512 173.227 62.3299 171.214 64.1221 169.489V169.489ZM109.996 163.673C106.81 165.196 87.4067 173.366 79.921 175.028C78.8821 175.305 77.7848 175.763 77.8725 176.34C78.5381 180.761 92.3132 177.001 93.2689 176.695C98.5666 174.999 109.367 171.039 113.947 166.579C112.839 166.027 110.275 164.227 109.996 163.673ZM115.818 168.381C113.74 169.765 100.156 176.83 93.921 178.766C90.6627 179.851 94.0919 183.198 100.455 181.386C107.489 180.296 117.759 171.982 119.423 170.459C118.591 170.043 116.79 168.936 115.818 168.381ZM122.195 172.121C119.684 173.838 114.849 177.046 111.78 179.092C110.514 179.937 107.491 181.606 107.557 182.94C107.588 183.578 108.802 184.789 114.35 182.776C117.799 181.365 121.975 178.497 125.521 173.368C124.828 173.157 123.025 172.535 122.195 172.121V172.121ZM128.431 174.197C127.131 175.496 125.451 177.27 123.808 178.906C122.294 180.855 118.921 182.259 120.082 184.513C121.339 186.952 125.296 183.441 126.722 182.098C128.736 180.195 130.682 177.681 131.412 175.165C130.441 174.889 129.332 174.613 128.431 174.197Z" fill="white"/>
<path d="M80.2001 133.213C83.8046 133.213 95.9989 134.045 100.435 134.045C113.181 134.045 130.428 131.798 142.282 134.231C149.651 135.743 150.708 137.875 150.708 140.166C150.708 143.147 148.214 144.938 146.447 146.231C144.369 147.755 137.992 151.493 137.716 161.186C136.054 160.494 133.697 160.078 135.361 156.617C138.264 150.814 144.792 143.747 133.628 140.737C131.867 140.263 129.697 139.953 127.046 139.863C118.87 139.587 107.013 139.526 102.992 138.834C98.9739 138.142 83.8024 134.602 80.6161 134.188C79.2287 134.042 79.2287 133.351 80.2001 133.213V133.213Z" fill="white"/>
<path d="M112.241 141.633C115.151 141.633 124.062 141.572 127.05 141.714C135.316 142.107 141.219 146.13 135.249 153.681C134.08 155.156 130.954 158.25 129.706 159.357C128.597 160.188 126.517 158.802 128.319 156.727C125.962 158.11 123.052 157.834 124.437 154.651C122.358 156.313 118.895 156.45 120.972 152.16C119.587 153.267 115.706 153.13 118.2 149.805C116.122 150.497 113.765 149.251 115.29 147.175C112.657 147.593 111.132 145.652 113.905 144.131C111.272 144.816 110.579 141.77 112.241 141.633V141.633ZM104.11 140.162C102.988 140.09 98.1195 139.299 98.2364 141.921C98.3534 144.544 103.761 143.554 104.872 143.347C106.918 142.967 108.553 142.343 108.506 141.496C108.459 140.627 106.327 140.301 104.11 140.162ZM104.308 144.657C103.125 144.747 98.8728 144.538 99.5362 146.937C99.7453 147.692 101.308 149.219 106.536 147.95C108.827 147.393 110.015 146.166 110.015 145.191C110.015 144.34 106.934 144.457 104.308 144.657V144.657ZM107.665 148.552C106.824 148.691 101.949 149.024 102.765 151.479C103.336 153.191 104.213 152.649 105.7 152.827C106.68 152.944 113.943 150.9 112.808 148.572C112.47 147.88 110.334 148.114 107.665 148.552V148.552ZM110.075 152.032C105.241 153.993 105.304 155.32 105.524 156.037C105.742 156.756 107.96 157.643 112.547 155.404C114.87 154.269 114.899 152.98 114.328 152.068C113.615 150.924 111.811 151.326 110.075 152.032ZM113.46 155.329C108.427 157.082 108.715 158.681 109.113 159.62C109.552 160.658 111.141 161.763 115.342 159.09C117.878 157.477 119.529 156.125 119.077 155.051C118.668 154.076 116.268 154.33 113.46 155.329V155.329ZM115.429 160.366C114.11 161.166 113.509 162.248 114.341 163.482C115.83 165.692 120.219 161.792 121.321 160.6C122.139 159.714 122.663 158.784 122.2 158.104C121.721 157.403 120.233 157.457 115.429 160.366V160.366ZM123.376 160.741C117.516 163.727 118.078 165.173 118.895 165.791C119.796 166.474 121.921 167.191 125.474 163.089C127.032 161.291 126.176 159.324 123.376 160.741V160.741ZM126.302 163.873C125.065 165.254 122.166 167.337 124.411 168.889C126.302 170.196 127.41 168.761 128.341 167.871C133.724 162.698 131.943 159.422 126.302 163.873V163.873Z" fill="white"/>
<path d="M143.985 136.754C148.1 138.809 149.802 140.993 145.577 143.976C145.06 144.34 145.698 145.245 146.215 144.881C150.866 141.602 149.865 138.198 144.482 135.763C143.915 135.48 143.42 136.471 143.985 136.754Z" fill="black"/>
<path d="M200.466 183.621C200.466 179.204 195.912 174.788 190.855 173.265C189.504 172.959 189.717 171.76 190.769 171.286C191.781 170.827 197.684 166.717 197.601 161.539C197.601 156.513 191.696 148.898 174.494 148.898C164.375 148.898 155.943 151.183 150.883 155.448C152.062 156.363 153.413 157.733 153.413 159.256V187.127C153.244 188.803 152.401 190.174 151.05 191.697C155.592 194.918 163.725 197.991 175.402 197.953C187.882 197.647 200.466 193.977 200.466 183.621Z" fill="white"/>
<path d="M175.348 170.205C180.716 170.205 185.067 166.733 185.067 162.451C185.067 158.168 180.716 154.696 175.348 154.696C169.981 154.696 165.63 158.168 165.63 162.451C165.63 166.733 169.981 170.205 175.348 170.205Z" fill="black"/>
<path d="M176.601 191.654C182.618 191.654 187.496 187.989 187.496 183.468C187.496 178.947 182.618 175.282 176.601 175.282C170.584 175.282 165.707 178.947 165.707 183.468C165.707 187.989 170.584 191.654 176.601 191.654Z" fill="black"/>
<path d="M133.128 170.095C133.508 168.206 134.117 166.371 134.931 164.607C134.884 164.537 133.443 162.695 129.892 167.822C127.931 170.65 131.394 171.789 133.128 170.095ZM133.013 178.802C131.552 180.498 130.173 181.922 129.263 183.059C127.36 185.436 132.31 188.365 134.976 184.987C134.052 183.021 133.392 180.941 133.013 178.802V178.802ZM201.228 134.498C202.012 134.055 202.837 133.687 203.692 133.402C185.946 125.046 164.051 125.046 146.307 133.402C147.229 133.721 148.057 134.085 148.77 134.498C165.203 127.348 184.939 127.411 201.228 134.498Z" fill="white"/>
<path d="M209.397 156.484C207.405 149.561 202.431 146.744 200.502 145.396C196.623 142.689 196.834 138.688 200.149 135.24C184.311 128.57 165.502 128.647 149.851 135.24C153.166 138.688 153.375 142.689 149.498 145.396C147.569 146.744 142.593 149.561 140.603 156.484C157.519 139.068 192.481 139.065 209.397 156.484V156.484ZM222.954 186.658C221.322 190.38 216.17 189.605 213.087 188.444C208.972 194.698 202.127 199.788 193.697 202.864L200.394 214.199C213.406 208.536 223.037 199.056 227.287 187.893C225.784 187.728 224.319 187.31 222.954 186.658V186.658Z" fill="white"/>
<path d="M201.363 217.142C215.73 211.081 226.291 200.478 230.663 187.768C229.933 187.921 229.189 187.99 228.443 187.972C224.16 199.534 214.268 209.36 200.889 215.194C201.158 215.811 201.318 216.47 201.363 217.142V217.142ZM193.844 217.481L193.853 217.501C195.982 222.735 202.299 219.707 199.441 214.765L192.634 203.241C191.386 203.663 190.109 204.041 188.798 204.378C188.771 204.555 193.772 217.243 193.844 217.481V217.481ZM186.646 219.11C187.966 224.346 194.282 222.749 192.796 217.847C192.796 217.847 187.669 205.395 187.386 204.715C186.102 205.007 184.791 205.254 183.457 205.454C183.444 205.503 186.646 219.11 186.646 219.11V219.11ZM179.23 219.936C179.7 225.57 186.621 224.593 185.38 218.982C185.382 218.986 182.29 205.649 182.277 205.62C180.977 205.784 179.657 205.91 178.321 205.986C178.276 206.107 179.225 219.824 179.23 219.936ZM328.44 134.31C327.819 133.836 326.484 133.86 324.795 133.766C316.203 133.766 296.244 134.321 292.363 134.321C288.482 134.321 261.039 137.367 256.745 138.753C254.804 139.308 254.388 141.244 256.745 141.384C259.101 141.523 288.394 141.941 292.552 141.941C295.779 141.941 312.551 141.885 322.243 139.964C327.491 138.924 330.306 135.729 328.44 134.31V134.31ZM319 144.565C314.01 144.704 289.066 144.843 286.154 144.704C283.245 144.565 260.653 143.32 258.02 143.181C252.324 142.882 250.478 145.416 256.495 146.782C259.542 147.476 287.679 150.659 309.021 150.244C313.039 150.383 318.445 148.305 319.832 146.366C321.22 144.428 319.695 144.565 319 144.565V144.565ZM309.3 153.705C305.834 153.705 264.95 150.659 256.356 148.86C248.881 147.723 250.568 151.56 253.585 152.182C256.122 152.706 286.431 158.551 301.816 158.827C306.943 158.69 312.902 153.842 309.3 153.705V153.705ZM298.906 162.289C294.056 161.734 261.761 156.612 253.032 154.258C245.135 152.214 246.727 157.457 249.567 158.274C252.092 159.002 279.613 165.694 285.878 166.029C288.534 166.169 291.198 165.989 293.811 165.494C302.662 163.727 298.906 162.289 298.906 162.289V162.289ZM285.878 169.489C282.413 168.797 254.278 162.426 246.239 159.382C242.324 158.018 241.144 161.862 243.606 162.981C245.13 163.673 266.751 172.672 277.007 173.227C280.749 173.227 287.67 171.214 285.878 169.489V169.489ZM240.001 163.673C243.188 165.196 262.593 173.366 270.077 175.028C271.116 175.305 272.213 175.763 272.125 176.34C271.46 180.761 257.685 177.001 256.729 176.695C251.433 174.999 240.631 171.039 236.05 166.579C237.161 166.027 239.725 164.227 240.001 163.673V163.673ZM234.18 168.381C236.257 169.765 249.841 176.83 256.077 178.766C259.335 179.851 255.906 183.198 249.542 181.386C242.509 180.296 232.239 171.982 230.575 170.459C231.409 170.043 233.21 168.936 234.18 168.381V168.381ZM227.807 172.121C230.316 173.838 235.153 177.046 238.223 179.092C239.489 179.937 242.511 181.606 242.446 182.94C242.414 183.578 241.2 184.789 235.652 182.776C232.203 181.365 228.027 178.497 224.481 173.368C225.172 173.157 226.973 172.535 227.807 172.121V172.121ZM221.567 174.197C222.867 175.496 224.549 177.27 226.192 178.906C227.708 180.855 231.081 182.259 229.918 184.513C228.661 186.952 224.704 183.441 223.28 182.098C221.266 180.195 219.318 177.681 218.588 175.165C219.559 174.889 220.668 174.613 221.567 174.197Z" fill="white"/>
<path d="M269.8 133.213C266.195 133.213 254.001 134.045 249.565 134.045C236.817 134.045 219.57 131.798 207.718 134.231C200.349 135.743 199.292 137.875 199.292 140.166C199.292 143.147 201.783 144.938 203.551 146.231C205.631 147.755 212.008 151.493 212.285 161.186C213.946 160.494 216.303 160.078 214.641 156.617C211.736 150.814 205.21 143.747 216.375 140.737C218.136 140.263 220.305 139.953 222.959 139.863C231.135 139.587 242.992 139.526 247.01 138.834C251.028 138.142 266.2 134.602 269.386 134.188C270.771 134.042 270.771 133.351 269.8 133.213V133.213Z" fill="white"/>
<path d="M237.757 141.633C234.847 141.633 225.936 141.572 222.947 141.714C214.681 142.107 208.779 146.13 214.749 153.681C215.918 155.156 219.044 158.25 220.292 159.357C221.4 160.188 223.48 158.802 221.677 156.727C224.036 158.11 226.945 157.834 225.56 154.651C227.638 156.313 231.103 156.45 229.025 152.16C230.411 153.267 234.292 153.13 231.796 149.805C233.876 150.497 236.232 149.251 234.706 147.175C237.341 147.593 238.865 145.652 236.091 144.131C238.728 144.816 239.421 141.77 237.757 141.633V141.633ZM245.89 140.162C247.012 140.09 251.881 139.299 251.764 141.921C251.647 144.544 246.239 143.554 245.128 143.347C243.082 142.967 241.447 142.343 241.494 141.496C241.541 140.627 243.673 140.301 245.89 140.162ZM245.695 144.657C246.875 144.747 251.129 144.538 250.464 146.937C250.255 147.692 248.694 149.219 243.466 147.95C241.173 147.393 239.988 146.166 239.988 145.191C239.988 144.34 243.066 144.457 245.695 144.657V144.657ZM242.333 148.552C243.174 148.691 248.049 149.024 247.233 151.479C246.661 153.191 245.785 152.649 244.298 152.827C243.318 152.944 236.055 150.9 237.19 148.572C237.53 147.88 239.666 148.114 242.333 148.552V148.552ZM239.925 152.032C244.757 153.993 244.694 155.32 244.476 156.037C244.255 156.756 242.041 157.643 237.453 155.404C235.131 154.269 235.099 152.98 235.67 152.068C236.385 150.924 238.189 151.326 239.925 152.032V152.032ZM236.538 155.329C241.571 157.082 241.283 158.681 240.885 159.62C240.446 160.658 238.856 161.763 234.654 159.09C232.117 157.477 230.467 156.125 230.921 155.051C231.333 154.076 233.73 154.33 236.538 155.329V155.329ZM234.568 160.366C235.888 161.166 236.489 162.248 235.657 163.482C234.17 165.692 229.779 161.792 228.677 160.6C227.861 159.714 227.335 158.784 227.798 158.104C228.277 157.403 229.768 157.457 234.568 160.366V160.366ZM226.624 160.741C232.484 163.727 231.922 165.173 231.105 165.791C230.204 166.474 228.079 167.191 224.526 163.089C222.968 161.291 223.824 159.324 226.624 160.741V160.741ZM223.696 163.873C224.933 165.254 227.831 167.337 225.59 168.889C223.696 170.196 222.588 168.761 221.659 167.871C216.276 162.698 218.057 159.422 223.696 163.873Z" fill="white"/>
<path d="M206.015 136.754C201.9 138.809 200.198 140.993 204.425 143.976C204.94 144.34 204.302 145.245 203.785 144.881C199.137 141.602 200.137 138.198 205.521 135.763C206.085 135.48 206.58 136.471 206.015 136.754V136.754Z" fill="black"/>
<path d="M216.872 170.095C216.49 168.206 215.882 166.371 215.066 164.607C215.113 164.537 216.555 162.695 220.105 167.822C222.068 170.65 218.606 171.789 216.872 170.095ZM216.984 178.802C218.446 180.498 219.827 181.923 220.737 183.059C222.64 185.436 217.69 188.365 215.023 184.987C215.948 183.008 216.613 180.936 216.984 178.802Z" fill="white"/>
</g>
<defs>
<clipPath id="clip0_109_2">
<rect width="316" height="99" fill="white" transform="translate(17 126)"/>
</clipPath>
</defs>
</svg>
