<svg width="350" height="350" viewBox="0 0 350 350" fill="none" xmlns="http://www.w3.org/2000/svg">
<path fill-rule="evenodd" clip-rule="evenodd" d="M67 175C67 115.353 115.353 67 175 67V67C234.647 67 283 115.353 283 175V175C283 234.647 234.647 283 175 283V283C115.353 283 67 234.647 67 175V175Z" fill="white"/>
<path fill-rule="evenodd" clip-rule="evenodd" d="M175 273.471C120.617 273.471 76.5293 229.382 76.5293 175C76.5293 120.617 120.617 76.5295 175 76.5295C229.384 76.5295 273.47 120.617 273.47 175C273.47 229.382 229.384 273.471 175 273.471V273.471Z" fill="black"/>
<path fill-rule="evenodd" clip-rule="evenodd" d="M175.027 189.875L95.0797 222.965C111.924 251.268 142.449 268.539 175.368 268.369C208.202 268.283 238.642 250.839 255.315 222.452L175.027 189.875V189.875ZM161.179 166.505L173.919 82.1122C141.084 82.5392 110.816 100.239 94.3995 128.712C77.8978 157.185 77.7263 192.241 93.8874 220.886L161.179 166.505V166.505ZM188.45 167.624L256.51 220.294C272.33 191.651 271.987 156.85 255.486 128.548C247.419 114.633 235.886 103.043 222.011 94.9067C208.136 86.7705 192.391 82.3649 176.308 82.119L188.45 167.624V167.624Z" fill="white"/>
</svg>
