<svg width="350" height="350" viewBox="0 0 350 350" fill="none" xmlns="http://www.w3.org/2000/svg">
<g clip-path="url(#clip0_108_15)">
<path d="M207.426 204.28H240.776C248.563 204.28 257.739 207.42 257.739 219.841C257.739 233.334 249.356 236.833 240.776 236.833H207.426V230.317H213.793V210.802H207.426V204.28V204.28ZM226.75 230.311H235.815C241.157 230.311 244.088 226.183 244.088 220.556C244.088 215.682 241.531 210.802 235.914 210.802H226.756V230.311M118.937 203.188C125.035 203.188 144.045 203.971 144.045 220.562C144.045 237.16 125.121 237.987 118.937 237.987C112.748 237.987 93.7377 237.246 93.7377 220.562C93.7438 204.119 112.84 203.188 118.937 203.188V203.188ZM108.095 220.569C108.095 228.608 113 231.465 118.937 231.465C124.967 231.465 129.78 228.516 129.78 220.569C129.78 212.523 124.875 209.672 118.937 209.672C112.902 209.672 108.095 212.714 108.095 220.569ZM33 230.33H39.386V210.826H33V204.261H58.6546V210.826H52.2809V217.262H71.8384V210.826H65.4709V204.261H91.1009V210.826H84.7149V230.33H91.1009V236.845H65.4709V230.33H71.8384V223.691H52.2809V230.33H58.6546V236.845H33V230.33ZM166.995 236.827H146.676V230.348H152.982L152.988 210.795H146.676V204.274H172.275L190.407 228.695V210.795H184.07V204.274H204.519L204.512 210.795H198.206V236.827H178.901L160.726 212.363V230.348H166.995V236.827ZM316 230.348V236.833H288.274V230.348H294.722L292.245 225.721H275.152L272.706 230.348H279.098V236.833H258.016V230.348H264.377L275.496 210.802H267.776V204.28H294.611L309.694 230.354H316V230.348ZM288.987 219.625L283.683 209.642L278.385 219.625H288.987ZM170.548 159.875C169.626 159.875 168.698 159.924 167.966 160.023C164.494 160.492 163.191 161.398 161.968 163.712C161.175 165.205 159.583 169.728 158.311 175.491C155.82 175.403 153.33 175.28 150.843 175.121C149.976 167.026 147.979 133.331 147.923 121.769C149.331 121.676 150.824 121.553 152.472 121.485C153.467 126.828 156.786 145.449 159.503 151.304C160.708 153.914 162.81 154.803 165.385 155C168.827 155.179 172.275 155.179 175.717 155C178.286 154.803 180.388 153.914 181.593 151.304C184.303 145.449 187.622 126.834 188.624 121.485C190.271 121.559 191.771 121.676 193.172 121.769C193.117 133.337 191.126 167.026 190.247 175.121C188.022 175.269 185.453 175.392 182.779 175.491C181.507 169.722 179.915 165.205 179.122 163.712C177.905 161.398 176.602 160.492 173.123 160.023C172.269 159.918 171.409 159.869 170.548 159.875" fill="#397DB7"/>
<path d="M170.548 184.246C163.621 184.246 147.788 183.82 142.576 182.839C137.038 181.796 133.301 178.607 131.47 173.362C129.902 168.889 128.747 160.584 128.034 148.676C127.591 141.216 127.598 134.516 128.052 128.778C128.839 119.011 133.332 115.117 142.73 114.05C149.011 113.347 163.049 113.007 170.548 113.007C178.046 113.007 192.084 113.347 198.354 114.056C207.751 115.124 212.25 119.017 213.031 128.784C213.492 134.522 213.498 141.223 213.056 148.682C212.349 160.59 211.193 168.895 209.626 173.368C207.788 178.613 204.057 181.796 198.507 182.845C193.314 183.82 177.475 184.246 170.548 184.246V184.246ZM197.721 178.594C199.491 178.26 201.145 177.47 202.521 176.302C203.896 175.134 204.947 173.628 205.569 171.931C206.553 169.111 207.911 162.75 208.765 148.411C209.202 141.149 209.196 134.658 208.747 129.117C208.218 122.491 204.887 119.134 197.874 118.338C191.765 117.647 177.954 117.326 170.548 117.326C163.142 117.326 149.331 117.647 143.215 118.344C136.208 119.14 132.877 122.497 132.342 129.123C131.9 134.664 131.9 141.155 132.33 148.417C133.184 162.756 134.543 169.111 135.526 171.937C136.473 174.639 139.116 177.792 143.369 178.6C147.751 179.421 162.152 179.933 170.548 179.933C178.944 179.933 193.338 179.421 197.721 178.594" fill="#397DB7"/>
</g>
<defs>
<clipPath id="clip0_108_15">
<rect width="283" height="125" fill="white" transform="translate(33 113)"/>
</clipPath>
</defs>
</svg>
