<svg width="350" height="350" viewBox="0 0 350 350" fill="none" xmlns="http://www.w3.org/2000/svg">
<g clip-path="url(#clip0_108_2)">
<path fill-rule="evenodd" clip-rule="evenodd" d="M175 75C230.078 75 275 119.922 275 175C275 230.078 230.078 275 175 275C119.922 275 75 230.078 75 175C75 119.922 119.922 75 175 75Z" fill="black"/>
<path d="M116.901 145.009L93.3044 124.713L102.14 114.44C103.939 112.35 105.622 110.881 107.18 110.026C108.748 109.169 110.334 108.814 111.942 108.955C113.545 109.092 114.896 109.622 115.984 110.558C116.989 111.422 117.665 112.559 118.007 113.961C118.355 115.358 118.246 116.939 117.694 118.693C119.537 117.395 121.342 116.741 123.114 116.714C124.893 116.691 126.468 117.27 127.842 118.451C128.928 119.377 129.749 120.573 130.223 121.918C130.707 123.276 130.862 124.575 130.694 125.815C130.525 127.056 130.049 128.388 129.282 129.812C128.515 131.237 127.381 132.823 125.879 134.57L116.901 145.009ZM106.34 129.617L111.432 123.697C112.808 122.097 113.707 120.863 114.128 120.006C114.681 118.886 114.889 117.855 114.739 116.917C114.59 115.98 114.106 115.154 113.282 114.444C112.502 113.773 111.623 113.394 110.657 113.318C109.68 113.242 108.736 113.517 107.826 114.131C106.91 114.752 105.605 116.046 103.911 118.016L99.2083 123.484L106.34 129.617V129.617ZM117.235 138.987L123.094 132.175C124.102 131.002 124.771 130.147 125.105 129.613C125.691 128.665 126.074 127.786 126.255 126.966C126.441 126.149 126.396 125.313 126.137 124.458C125.867 123.605 125.367 122.853 124.614 122.206C123.736 121.45 122.747 121.054 121.643 121.015C120.546 120.98 119.465 121.314 118.401 122.018C117.348 122.72 116.065 123.944 114.568 125.684L109.126 132.012L117.235 138.987V138.987ZM156.135 110.144V83.4529H163.172L171.524 102.351C172.297 104.11 172.864 105.428 173.21 106.304C173.612 105.334 174.237 103.905 175.092 102.022L183.543 83.4529H189.832V110.144H185.327V87.8028L175.067 110.144H170.85L160.639 87.4234V110.144H156.135ZM219.967 125.73L236.299 103.585L238.528 106.336L227.467 120.41C226.329 121.873 225.147 123.302 223.925 124.695C226.556 123.423 228.073 122.694 228.491 122.511L245.584 115.044L248.207 118.281L240.085 129.669C238.077 132.499 236.06 135.002 234.04 137.178C235.552 136.375 237.33 135.496 239.358 134.541L255.226 126.942L257.413 129.64L232.22 140.85L230.125 138.264L242.427 121.222C243.457 119.793 244.094 118.926 244.339 118.618C243.217 119.174 242.248 119.631 241.429 119.99L222.184 128.466L219.967 125.73Z" fill="white"/>
<path fill-rule="evenodd" clip-rule="evenodd" d="M234.071 175.99C234.071 207.981 207.981 234.072 175.99 234.072V175.99H234.071Z" fill="#00ACEC"/>
<path fill-rule="evenodd" clip-rule="evenodd" d="M234.071 174.01C234.071 142.02 207.981 115.928 175.99 115.928V174.01H234.071Z" fill="white"/>
<path fill-rule="evenodd" clip-rule="evenodd" d="M115.929 174.01C115.929 142.02 142.02 115.928 174.01 115.928V174.01H115.929Z" fill="#00ACEC"/>
<path fill-rule="evenodd" clip-rule="evenodd" d="M115.929 175.99C115.929 207.981 142.02 234.072 174.01 234.072V175.99H115.929Z" fill="white"/>
</g>
<defs>
<clipPath id="clip0_108_2">
<rect width="200" height="200" fill="white" transform="translate(75 75)"/>
</clipPath>
</defs>
</svg>
