<svg width="350" height="350" viewBox="0 0 350 350" fill="none" xmlns="http://www.w3.org/2000/svg">
<g clip-path="url(#clip0_109_20)">
<path d="M39.7464 155.148C32.039 160.208 23.9692 163.63 22.4686 164.249L60.5246 190.772C60.5439 190.785 60.5596 190.803 60.5703 190.824C60.581 190.845 60.5864 190.868 60.586 190.891V190.893C60.5859 190.917 60.5798 190.94 60.5683 190.961C60.5568 190.982 60.5403 191 60.5203 191.013L58.8216 192.126C58.7973 192.141 58.7689 192.149 58.74 192.149C58.7111 192.149 58.6829 192.14 58.659 192.124L44.7613 182.605C39.4584 179.04 33.6089 179.796 29.6371 181.06C25.8245 182.271 23.0152 184.126 22.3198 184.609C22.6528 184.842 51.0675 204.602 51.2586 204.736C51.8719 204.163 56.0348 200.38 64.7844 195.009C74.0106 189.353 79.4501 187.376 80.7086 186.958L42.5825 160.391C42.5633 160.378 42.5476 160.36 42.5367 160.339C42.5259 160.318 42.5202 160.296 42.5202 160.272V160.27C42.5205 160.247 42.5266 160.224 42.5379 160.203C42.5492 160.182 42.5654 160.164 42.5851 160.151L44.2077 159.08C44.2315 159.065 44.2593 159.056 44.2877 159.056C44.3162 159.056 44.344 159.065 44.3677 159.08C44.4188 159.113 49.5305 162.452 58.7195 168.89C67.3351 174.922 79.3515 167.689 81.0035 166.639C80.6541 166.398 51.7888 146.387 51.6063 146.26C50.8841 146.872 45.5596 151.343 39.7464 155.148V155.148Z" fill="#D52B1E"/>
<path d="M182.356 159.585V168.035H201.305C201.344 168.036 201.38 168.051 201.407 168.078C201.435 168.105 201.45 168.142 201.45 168.18C201.45 168.22 201.434 168.257 201.404 168.286L181.689 186.603V193.725H221.519V185.238H201.689C201.66 185.237 201.631 185.229 201.607 185.212C201.583 185.196 201.564 185.173 201.553 185.146C201.543 185.118 201.541 185.089 201.548 185.06C201.554 185.032 201.569 185.006 201.591 184.986C201.591 184.986 221.494 166.805 221.588 166.718V159.583C221.301 159.584 182.643 159.585 182.356 159.585V159.585ZM166.397 159.585V181.273C166.397 184.442 163.602 186.333 158.919 186.333C154.169 186.333 151.444 184.458 151.444 181.187V159.585H139.214V181.881C139.214 186.622 140.429 189.595 143.153 191.517C146.133 193.623 151.143 194.603 158.918 194.603C166.695 194.603 171.706 193.623 174.686 191.517C177.411 189.595 178.625 186.622 178.625 181.881V159.585L166.397 159.585V159.585ZM252.335 159.585V181.185C252.335 184.409 249.542 186.332 244.861 186.332C240.106 186.332 237.38 184.457 237.38 181.186V159.585H225.154V181.88C225.154 186.622 226.369 189.594 229.094 191.516C232.075 193.622 237.085 194.603 244.861 194.603C252.634 194.603 257.644 193.622 260.628 191.516C263.352 189.593 264.568 186.621 264.568 181.88V159.585H252.335V159.585ZM314.014 159.585V193.726H326.788V159.585H314.014ZM295.006 159.585C294.923 159.653 281.157 171.434 281.157 171.434C281.136 171.452 281.11 171.464 281.082 171.468C281.055 171.472 281.027 171.467 281.001 171.456C280.976 171.445 280.954 171.426 280.939 171.403C280.923 171.379 280.916 171.352 280.916 171.324V159.585H268.144V193.726H280.916V181.662C280.916 181.605 280.95 181.551 281.005 181.529C281.031 181.518 281.06 181.515 281.088 181.52C281.116 181.525 281.142 181.537 281.162 181.557C281.162 181.557 293.938 193.646 294.021 193.726H311.136L292.318 176.315C292.303 176.302 292.291 176.285 292.283 176.267C292.275 176.249 292.271 176.229 292.271 176.209V176.206C292.271 176.165 292.29 176.126 292.323 176.098L311.743 159.584L295.006 159.585V159.585ZM95.1195 169.869C95.1195 173.581 96.5622 176.099 99.6596 177.791C102.509 179.348 106.79 180.318 113.976 181.036L115.334 181.152C118.448 181.399 121.978 181.678 121.978 184.218C121.978 185.957 120.081 186.918 116.637 186.918C114.955 186.918 112.486 186.494 110.417 182.888H94.3887C94.425 186.842 95.8971 189.556 99.0256 191.409C102.555 193.501 108.307 194.517 116.611 194.517C135.131 194.517 136.57 185.933 136.57 183.303C136.57 177.202 131.108 173.539 119.868 172.107L118.102 171.885C112.973 171.251 108.922 170.75 108.922 168.959C108.922 168.266 109.152 167.686 109.605 167.236C110.79 166.058 113.234 166.061 114.277 166.062H114.375C115.335 166.062 118.622 166.348 120.868 169.95H135.394C135.291 162.741 127.666 158.606 114.423 158.606C97.0008 158.605 95.1195 166.481 95.1195 169.869V169.869Z" fill="#003478"/>
</g>
<defs>
<clipPath id="clip0_109_20">
<rect width="305" height="59" fill="white" transform="translate(22 146)"/>
</clipPath>
</defs>
</svg>
