<svg width="350" height="350" viewBox="0 0 350 350" fill="none" xmlns="http://www.w3.org/2000/svg">
<path fill-rule="evenodd" clip-rule="evenodd" d="M64.3995 196.382C60.552 193.971 57.7161 185.654 57.7161 175.769C57.7161 175.406 57.7177 175.048 57.7268 174.691L57.7299 174.696C47.0261 173.014 39.2928 168.406 39.0938 162.954L39.0632 163.018C36.4447 166.274 34.9494 170.037 34.9494 174.047C34.9494 185.846 47.9015 195.514 64.3307 196.37L64.3995 196.382ZM30 174.907C30 161.705 46.4307 151 66.6982 151C86.9673 151 103.398 161.705 103.398 174.907C103.398 188.11 86.9673 198.815 66.6982 198.815C46.4307 198.815 30 188.11 30 174.907ZM66.6998 154.45C70.6131 154.45 73.9418 160.386 75.1753 168.669L75.1784 168.655C82.7923 167.471 88.1212 164.737 88.1212 161.555C88.1212 157.287 78.53 153.83 66.6998 153.83C54.8711 153.83 45.2798 157.287 45.2798 161.555C45.2798 164.737 50.6088 167.469 58.2212 168.655L58.2258 168.669C59.4593 160.386 62.788 154.45 66.6998 154.45ZM69.0689 196.368C85.4981 195.513 98.4516 185.845 98.4516 174.045C98.4516 170.036 96.9549 166.272 94.3378 163.017L94.3057 162.953C94.1083 168.404 86.375 173.012 75.6696 174.694L75.6742 174.69C75.6819 175.046 75.6849 175.404 75.6849 175.767C75.6849 185.652 72.8475 193.97 69.0015 196.38L69.0689 196.368ZM66.6998 169.283C68.3984 169.285 70.0962 169.212 71.7885 169.065L71.7869 169.067C70.9758 163.759 69.0046 160.011 66.7013 160.011C64.398 160.011 62.4283 163.759 61.6157 169.067L61.6141 169.065C63.3054 169.211 65.0022 169.284 66.6998 169.283ZM66.6998 188.942C69.6459 188.942 72.0502 182.812 72.1772 175.124L72.1925 175.129C68.5389 175.465 64.8621 175.465 61.2086 175.129L61.2239 175.124C61.3509 182.812 63.7537 188.942 66.6998 188.942ZM217.267 174.907C217.267 164.817 225.448 156.635 235.539 156.635C245.633 156.635 253.813 164.817 253.813 174.907C253.813 185 245.632 193.179 235.539 193.179C225.448 193.179 217.267 185 217.267 174.907ZM235.539 186.478C241.174 186.478 245.744 181.296 245.744 174.905C245.744 168.516 241.174 163.334 235.539 163.334C229.904 163.334 225.337 168.516 225.337 174.905C225.337 181.298 229.905 186.478 235.539 186.478ZM274.548 164.247V192.349H266.847V164.247H266.874H256.108V157.895H285.287V164.247H274.548ZM294.601 184.598L294.595 184.605L291.641 192.351H282.647L296.863 157.895H306.447L320.66 192.351H311.668L308.715 184.605L308.706 184.598H294.601ZM301.655 178.782H306.5L306.497 178.783L301.687 166.173H301.621L296.811 178.783L296.808 178.782H301.655ZM132.626 164.247V192.349H124.927V164.247H124.954H114.186V157.895H143.367V164.247H132.626ZM145.336 174.907C145.336 164.817 153.518 156.635 163.611 156.635C173.703 156.635 181.885 164.817 181.885 174.907C181.885 185 173.703 193.179 163.611 193.179C153.518 193.179 145.336 185 145.336 174.907ZM163.611 186.478C169.245 186.478 173.815 181.296 173.815 174.905C173.815 168.516 169.245 163.334 163.611 163.334C157.976 163.334 153.408 168.516 153.408 174.905C153.408 181.298 157.976 186.478 163.611 186.478ZM199.573 192.349H203.478V179.267L216.91 157.895H207.919L199.573 172.377L191.231 157.895H182.24L195.671 179.267V192.349H199.573Z" fill="#CC2229"/>
</svg>
