<svg width="350" height="350" viewBox="0 0 350 350" fill="none" xmlns="http://www.w3.org/2000/svg">
<path fill-rule="evenodd" clip-rule="evenodd" d="M126.126 204.776C119.163 210.265 110.944 213.458 102.017 213.458C81.5116 213.458 63 196.53 63 175.7C63 165.023 67.0137 154.538 74.6315 147.004C81.4848 140.26 91.068 136 100.706 136C110.098 136 119.026 138.621 126.206 144.737C132.95 139.14 141.715 136.055 150.507 136.055C159.545 136.055 168.226 139.085 175.161 144.874C182.068 138.866 190.86 136.137 199.925 136.137C208.798 136.137 217.288 139.304 224.171 144.847C231.541 139.085 240.388 136.165 249.779 136.165C258.162 136.165 266.679 139.632 273.123 144.928C281.996 152.191 287.294 163.304 287.294 174.77C287.294 196.068 270.175 213.623 248.798 213.623C239.732 213.623 231.023 210.783 224.144 204.831C217.316 210.21 208.745 213.594 199.98 213.594C190.832 213.594 182.068 210.81 175.079 204.803C168.063 210.318 159.462 213.512 150.507 213.512C141.58 213.513 132.869 210.701 126.126 204.776V204.776Z" fill="black"/>
<path fill-rule="evenodd" clip-rule="evenodd" d="M117.607 195.031C114.166 189.295 111.983 182.635 111.983 175.916C111.983 168.19 113.758 161.064 117.689 154.402C112.664 150.934 106.877 148.859 100.706 148.859C86.5081 148.859 75.8887 162.02 75.8887 175.617C75.8887 189.485 88.5578 200.516 102.018 200.516C107.724 200.517 113.102 198.443 117.607 195.031V195.031ZM126.098 182.906C127.135 180.205 127.49 177.365 127.49 174.472C127.49 171.741 126.971 169.064 126.153 166.471C125.333 169.011 124.842 171.631 124.842 174.307C124.842 177.255 125.198 180.122 126.098 182.906ZM134.617 195.031C139.641 198.989 145.511 200.544 151.873 200.544C157.334 200.544 162.357 198.278 166.644 195.057C162.683 188.559 160.964 181.46 160.964 173.841C160.964 167.043 163.313 160.326 166.725 154.512C162.002 151.099 156.433 148.914 150.535 148.914C144.638 148.914 139.26 150.908 134.672 154.484C138.794 161.172 140.323 168.572 140.323 176.38C140.323 182.878 138.003 189.568 134.617 195.031V195.031ZM175.053 182.961C175.927 180.314 176.5 177.42 176.5 174.634C176.5 171.796 176.061 169.257 175.079 166.608C174.231 169.208 173.798 171.926 173.796 174.661C173.797 177.527 173.96 180.286 175.053 182.961ZM183.49 195.112C188.568 198.906 194.327 200.654 200.637 200.654C206.041 200.654 211.42 198.388 215.625 195.057C212.103 189.16 209.947 182.415 209.947 175.508C209.947 168.055 211.884 160.983 215.708 154.621C211.094 151.045 205.414 148.997 199.57 148.997C193.726 148.997 188.214 151.071 183.6 154.593C187.64 161.228 189.277 167.917 189.277 175.754C189.277 182.58 187.039 189.322 183.49 195.112ZM224.09 182.988C224.961 180.27 225.404 177.432 225.401 174.578C225.401 171.876 224.935 169.228 224.117 166.661C223.325 169.228 222.778 171.766 222.778 174.471C222.778 177.392 223.188 180.205 224.09 182.988V182.988ZM232.661 195.165C237.275 198.687 242.901 200.763 248.716 200.763C263.076 200.763 274.49 189.023 274.49 174.742C274.49 160.736 262.395 148.997 248.469 148.997C242.708 148.997 237.22 151.126 232.66 154.567C236.237 160.655 238.366 167.59 238.366 174.687C238.367 181.952 235.964 188.776 232.661 195.165V195.165Z" fill="white"/>
</svg>
