<svg width="350" height="350" viewBox="0 0 350 350" fill="none" xmlns="http://www.w3.org/2000/svg">
<path fill-rule="evenodd" clip-rule="evenodd" d="M131.838 173.357L149.553 147.429C150.232 146.41 149.417 145.257 147.992 145.257L134.316 145.155C133.297 145.155 131.261 146.445 130.379 147.564L124.203 155.607L115.618 166.84L115.685 147.428C115.685 146.105 114.293 145.255 113.445 145.255H97.7649C96.6788 145.255 95.6945 145.663 95.6615 147.664C95.6284 149.633 98.0705 150.04 98.0705 150.583V202.473C98.0705 203.457 99.4278 204.949 100.379 204.949L113.817 204.882C114.768 204.848 115.582 203.49 115.582 202.573L115.615 180.956L124.201 191.577L133.296 202.777C134.042 203.66 135.501 204.882 137.029 204.882L151.622 204.78C153.014 204.78 152.878 203.083 152.539 202.642C145.601 192.907 138.701 183.145 131.838 173.357V173.357ZM182.199 145.258H166.69C164.858 145.258 164.45 146.344 164.145 147.498C164.484 149.601 166.69 150.178 166.69 150.212V202.576C166.69 203.968 167.539 204.885 168.727 204.885L174.293 204.85L182.573 204.783C184.1 204.783 184.506 203.867 184.506 202.576V147.429C184.506 146.106 183.387 145.258 182.199 145.258V145.258Z" fill="#CC2229"/>
<path fill-rule="evenodd" clip-rule="evenodd" d="M229.404 118.515C212.912 114.342 194.35 112 174.734 112C174.597 112 174.461 112.033 174.293 112.033C156.51 112.033 139.541 114.002 124.202 117.497C81.136 127.339 51 149.33 51 174.749C51 200.168 81.136 222.158 124.201 231.999C139.54 235.496 156.508 237.463 174.292 237.463H174.732C194.349 237.463 212.91 235.156 229.403 230.982C270.297 220.733 298.499 199.353 298.499 174.749C298.502 150.145 270.3 128.764 229.404 118.515V118.515ZM229.404 217.305C213.15 221.073 194.518 223.211 174.734 223.211C174.597 223.211 174.461 223.178 174.293 223.178C156.374 223.178 139.372 221.379 124.202 218.222C86.2266 210.315 60.0276 193.788 60.0276 174.75C60.0276 155.712 86.2266 139.185 124.202 131.278C139.372 128.121 156.374 126.322 174.293 126.289H174.734C194.518 126.289 213.15 128.427 229.404 132.193C265.139 140.406 289.473 156.424 289.473 174.749C289.473 193.074 265.139 209.093 229.404 217.305Z" fill="#CC2229"/>
<path fill-rule="evenodd" clip-rule="evenodd" d="M240.094 147.498C239.587 146.343 238.703 145.258 237.548 145.258H216.576C215.83 145.258 214.811 145.869 214.811 146.887C214.778 149.872 217.902 149.772 217.731 150.212L200.05 202.372C199.746 203.255 200.525 204.883 201.611 204.883L213.93 204.781C215.015 204.781 216.543 203.866 216.985 202.542L222.822 185.032C224.79 179.194 226.76 173.357 228.693 167.52C228.796 167.283 229.102 167.147 229.406 167.147C229.881 167.147 230.39 167.316 230.491 167.656L241.929 202.747C242.167 203.527 243.761 204.783 244.607 204.783L257.436 204.885C258.182 204.885 259.066 203.391 258.829 202.712L240.094 147.498V147.498Z" fill="#CC2229"/>
</svg>
