<svg width="35" height="35" viewBox="0 0 35 35" fill="none" xmlns="http://www.w3.org/2000/svg">
<g clip-path="url(#clip0_113_36)">
<rect width="35" height="35" rx="17.5" fill="#C62630"/>
<path d="M7.5 16L8.84496 15.1034C10.8132 13.7912 13.311 13.5619 15.4853 14.4937L19 16H29.5248C32.465 16 34.7662 18.5719 34.5 21.5V21.5L38 33.5H3L-2 16H7.5Z" fill="white"/>
<path d="M7.5 18L8.84496 17.1034C10.8132 15.7912 13.311 15.5619 15.4853 16.4937L19 18H28.5961C31.849 18 34.2358 21.0569 33.4468 24.2127L32.5 28L38 35.5H3L-2 18H7.5Z" fill="#262626"/>
</g>
<defs>
<clipPath id="clip0_113_36">
<rect width="35" height="35" rx="17.5" fill="white"/>
</clipPath>
</defs>
</svg>
