<svg width="229" height="89" viewBox="0 0 229 89" fill="none" xmlns="http://www.w3.org/2000/svg">
<path d="M71.4972 65.593V63.8182H79.8594V65.593H76.7422V74H74.6143V65.593H71.4972ZM86.5352 74.1442C86.048 74.1442 85.6138 74.0597 85.2327 73.8906C84.8515 73.7183 84.5499 73.4647 84.3278 73.13C84.1091 72.7919 83.9997 72.371 83.9997 71.8672C83.9997 71.4429 84.0776 71.0866 84.2334 70.7983C84.3892 70.5099 84.6013 70.2779 84.8697 70.1023C85.1382 69.9266 85.4431 69.794 85.7845 69.7045C86.1292 69.6151 86.4905 69.5521 86.8683 69.5156C87.3125 69.4692 87.6704 69.4261 87.9422 69.3864C88.214 69.3433 88.4112 69.2803 88.5338 69.1974C88.6564 69.1146 88.7178 68.992 88.7178 68.8295V68.7997C88.7178 68.4848 88.6183 68.2412 88.4195 68.0689C88.2239 67.8965 87.9455 67.8104 87.5842 67.8104C87.2031 67.8104 86.8998 67.8949 86.6744 68.0639C86.4491 68.2296 86.2999 68.4384 86.227 68.6903L84.2682 68.5312C84.3676 68.0672 84.5632 67.6662 84.8548 67.3281C85.1465 66.9867 85.5227 66.7249 85.9834 66.5426C86.4474 66.357 86.9843 66.2642 87.5942 66.2642C88.0184 66.2642 88.4244 66.3139 88.8122 66.4134C89.2033 66.5128 89.5497 66.6669 89.8513 66.8757C90.1562 67.0845 90.3965 67.353 90.5722 67.6811C90.7478 68.0059 90.8357 68.3954 90.8357 68.8494V74H88.8271V72.9411H88.7675C88.6448 73.1797 88.4808 73.3902 88.2753 73.5724C88.0698 73.7514 87.8229 73.8923 87.5345 73.995C87.2462 74.0945 86.9131 74.1442 86.5352 74.1442ZM87.1418 72.6825C87.4533 72.6825 87.7284 72.6212 87.967 72.4986C88.2057 72.3726 88.3929 72.2036 88.5288 71.9915C88.6647 71.7794 88.7327 71.5391 88.7327 71.2706V70.4602C88.6664 70.5033 88.5752 70.5431 88.4592 70.5795C88.3465 70.6127 88.2189 70.6442 88.0764 70.674C87.9339 70.7005 87.7914 70.7254 87.6489 70.7486C87.5063 70.7685 87.3771 70.7867 87.2611 70.8033C87.0125 70.8397 86.7954 70.8977 86.6098 70.9773C86.4242 71.0568 86.28 71.1645 86.1773 71.3004C86.0745 71.433 86.0232 71.5987 86.0232 71.7976C86.0232 72.0859 86.1276 72.3063 86.3364 72.4588C86.5485 72.608 86.817 72.6825 87.1418 72.6825ZM100.119 77.0227C99.433 77.0227 98.8447 76.9283 98.3542 76.7393C97.867 76.5537 97.4792 76.3002 97.1908 75.9787C96.9025 75.6572 96.7152 75.2959 96.629 74.8949L98.5879 74.6314C98.6475 74.7839 98.742 74.9264 98.8712 75.0589C99.0005 75.1915 99.1712 75.2976 99.3833 75.3771C99.5987 75.46 99.8606 75.5014 100.169 75.5014C100.63 75.5014 101.009 75.3887 101.307 75.1634C101.609 74.9413 101.76 74.5684 101.76 74.0447V72.6477H101.67C101.577 72.8598 101.438 73.0604 101.253 73.2493C101.067 73.4382 100.828 73.5923 100.537 73.7116C100.245 73.831 99.897 73.8906 99.4927 73.8906C98.9193 73.8906 98.3973 73.758 97.9266 73.4929C97.4593 73.2244 97.0864 72.8151 96.808 72.2649C96.5329 71.7114 96.3954 71.0121 96.3954 70.1669C96.3954 69.3018 96.5362 68.5793 96.818 67.9993C97.0997 67.4193 97.4742 66.9851 97.9415 66.6967C98.4122 66.4084 98.9276 66.2642 99.4877 66.2642C99.9153 66.2642 100.273 66.3371 100.562 66.483C100.85 66.6255 101.082 66.8045 101.258 67.0199C101.437 67.232 101.574 67.4408 101.67 67.6463H101.75V66.3636H103.853V74.0746C103.853 74.7242 103.694 75.2678 103.375 75.7053C103.057 76.1428 102.617 76.4709 102.053 76.6896C101.493 76.9117 100.848 77.0227 100.119 77.0227ZM100.164 72.2997C100.505 72.2997 100.794 72.2152 101.029 72.0462C101.268 71.8738 101.45 71.6286 101.576 71.3104C101.705 70.9889 101.77 70.6044 101.77 70.157C101.77 69.7095 101.707 69.3217 101.581 68.9936C101.455 68.6622 101.273 68.4053 101.034 68.223C100.795 68.0407 100.505 67.9496 100.164 67.9496C99.8158 67.9496 99.5225 68.044 99.2839 68.233C99.0452 68.4186 98.8646 68.6771 98.742 69.0085C98.6193 69.34 98.558 69.7228 98.558 70.157C98.558 70.5978 98.6193 70.9789 98.742 71.3004C98.8679 71.6186 99.0486 71.8655 99.2839 72.0412C99.5225 72.2135 99.8158 72.2997 100.164 72.2997ZM117.218 74V63.8182H119.371V72.2251H123.736V74H117.218ZM129.322 74V66.3636H131.44V74H129.322ZM130.386 65.3793C130.071 65.3793 129.801 65.2749 129.575 65.0661C129.353 64.8539 129.242 64.6004 129.242 64.3054C129.242 64.0137 129.353 63.7635 129.575 63.5547C129.801 63.3426 130.071 63.2365 130.386 63.2365C130.701 63.2365 130.969 63.3426 131.191 63.5547C131.416 63.7635 131.529 64.0137 131.529 64.3054C131.529 64.6004 131.416 64.8539 131.191 65.0661C130.969 65.2749 130.701 65.3793 130.386 65.3793ZM139.454 69.5852V74H137.336V66.3636H139.355V67.7109H139.444C139.613 67.2668 139.897 66.9155 140.294 66.657C140.692 66.3951 141.174 66.2642 141.741 66.2642C142.271 66.2642 142.734 66.3802 143.128 66.6122C143.522 66.8442 143.829 67.1757 144.048 67.6065C144.267 68.0341 144.376 68.5445 144.376 69.1378V74H142.258V69.5156C142.261 69.0483 142.142 68.6837 141.9 68.4219C141.658 68.1567 141.325 68.0241 140.901 68.0241C140.616 68.0241 140.364 68.0855 140.145 68.2081C139.93 68.3307 139.761 68.5097 139.638 68.745C139.519 68.977 139.457 69.2571 139.454 69.5852ZM153.725 74.1491C152.94 74.1491 152.264 73.9901 151.697 73.6719C151.133 73.3504 150.699 72.8963 150.394 72.3097C150.089 71.7197 149.937 71.022 149.937 70.2166C149.937 69.4311 150.089 68.7417 150.394 68.1484C150.699 67.5552 151.128 67.0928 151.682 66.7614C152.239 66.4299 152.892 66.2642 153.641 66.2642C154.145 66.2642 154.614 66.3454 155.048 66.5078C155.485 66.6669 155.866 66.9072 156.191 67.2287C156.519 67.5502 156.775 67.9545 156.957 68.4418C157.139 68.9257 157.23 69.4924 157.23 70.142V70.7237H150.782V69.4112H155.237C155.237 69.1063 155.17 68.8362 155.038 68.6009C154.905 68.3655 154.721 68.1816 154.486 68.049C154.254 67.9131 153.984 67.8452 153.676 67.8452C153.354 67.8452 153.069 67.9197 152.82 68.0689C152.575 68.2147 152.383 68.4119 152.244 68.6605C152.105 68.9058 152.033 69.1792 152.03 69.4808V70.7287C152.03 71.1065 152.1 71.433 152.239 71.7081C152.381 71.9832 152.582 72.1953 152.84 72.3445C153.099 72.4936 153.405 72.5682 153.76 72.5682C153.995 72.5682 154.211 72.535 154.406 72.4688C154.602 72.4025 154.769 72.303 154.909 72.1705C155.048 72.0379 155.154 71.8755 155.227 71.6832L157.186 71.8125C157.086 72.2831 156.882 72.6941 156.574 73.0455C156.269 73.3935 155.875 73.6652 155.391 73.8608C154.91 74.053 154.355 74.1491 153.725 74.1491Z" fill="white"/>
<path d="M2.52841 51V21.9091H8.67898V45.929H21.1506V51H2.52841ZM50.8239 36.4545C50.8239 39.6269 50.2225 42.3258 49.0199 44.5511C47.8267 46.7765 46.1979 48.4763 44.1335 49.6506C42.0786 50.8153 39.768 51.3977 37.2017 51.3977C34.6165 51.3977 32.2964 50.8106 30.2415 49.6364C28.1866 48.4621 26.5625 46.7623 25.3693 44.5369C24.1761 42.3116 23.5795 39.6174 23.5795 36.4545C23.5795 33.2822 24.1761 30.5833 25.3693 28.358C26.5625 26.1326 28.1866 24.4375 30.2415 23.2727C32.2964 22.0985 34.6165 21.5114 37.2017 21.5114C39.768 21.5114 42.0786 22.0985 44.1335 23.2727C46.1979 24.4375 47.8267 26.1326 49.0199 28.358C50.2225 30.5833 50.8239 33.2822 50.8239 36.4545ZM44.5881 36.4545C44.5881 34.3996 44.2803 32.6667 43.6648 31.2557C43.0587 29.8447 42.2017 28.7746 41.0938 28.0455C39.9858 27.3163 38.6884 26.9517 37.2017 26.9517C35.715 26.9517 34.4176 27.3163 33.3097 28.0455C32.2017 28.7746 31.34 29.8447 30.7244 31.2557C30.1184 32.6667 29.8153 34.3996 29.8153 36.4545C29.8153 38.5095 30.1184 40.2424 30.7244 41.6534C31.34 43.0644 32.2017 44.1345 33.3097 44.8636C34.4176 45.5928 35.715 45.9574 37.2017 45.9574C38.6884 45.9574 39.9858 45.5928 41.0938 44.8636C42.2017 44.1345 43.0587 43.0644 43.6648 41.6534C44.2803 40.2424 44.5881 38.5095 44.5881 36.4545ZM74.6697 31.3125C74.4709 30.6212 74.1915 30.0104 73.8317 29.4801C73.4718 28.9403 73.0315 28.4858 72.5107 28.1165C71.9993 27.7377 71.4122 27.4489 70.7493 27.25C70.0959 27.0511 69.3714 26.9517 68.576 26.9517C67.0893 26.9517 65.7824 27.321 64.6555 28.0597C63.5381 28.7983 62.6669 29.8731 62.0419 31.2841C61.4169 32.6856 61.1044 34.3996 61.1044 36.4261C61.1044 38.4527 61.4122 40.1761 62.0277 41.5966C62.6432 43.017 63.5144 44.1013 64.6413 44.8494C65.7682 45.5881 67.0987 45.9574 68.6328 45.9574C70.0249 45.9574 71.2133 45.7112 72.1982 45.2188C73.1925 44.7169 73.95 44.0114 74.4709 43.1023C75.0012 42.1932 75.2663 41.1184 75.2663 39.8778L76.5163 40.0625H69.0163V35.4318H81.1896V39.0966C81.1896 41.6534 80.6499 43.8504 79.5703 45.6875C78.4908 47.5152 77.004 48.9261 75.1101 49.9205C73.2161 50.9053 71.0476 51.3977 68.6044 51.3977C65.8771 51.3977 63.4813 50.7964 61.4169 49.5938C59.3525 48.3816 57.7427 46.6629 56.5874 44.4375C55.4415 42.2027 54.8686 39.5511 54.8686 36.483C54.8686 34.125 55.2095 32.0227 55.8913 30.1761C56.5826 28.3201 57.5485 26.7481 58.7891 25.4602C60.0296 24.1723 61.4737 23.1922 63.1214 22.5199C64.7692 21.8475 66.5542 21.5114 68.4766 21.5114C70.1243 21.5114 71.6584 21.7528 73.0788 22.2358C74.4993 22.7093 75.7588 23.3816 76.8572 24.2528C77.9652 25.1241 78.8696 26.161 79.5703 27.3636C80.2711 28.5568 80.7209 29.8731 80.9197 31.3125H74.6697ZM112.543 36.4545C112.543 39.6269 111.941 42.3258 110.739 44.5511C109.545 46.7765 107.917 48.4763 105.852 49.6506C103.797 50.8153 101.487 51.3977 98.9205 51.3977C96.3352 51.3977 94.0152 50.8106 91.9602 49.6364C89.9053 48.4621 88.2813 46.7623 87.0881 44.5369C85.8949 42.3116 85.2983 39.6174 85.2983 36.4545C85.2983 33.2822 85.8949 30.5833 87.0881 28.358C88.2813 26.1326 89.9053 24.4375 91.9602 23.2727C94.0152 22.0985 96.3352 21.5114 98.9205 21.5114C101.487 21.5114 103.797 22.0985 105.852 23.2727C107.917 24.4375 109.545 26.1326 110.739 28.358C111.941 30.5833 112.543 33.2822 112.543 36.4545ZM106.307 36.4545C106.307 34.3996 105.999 32.6667 105.384 31.2557C104.777 29.8447 103.92 28.7746 102.812 28.0455C101.705 27.3163 100.407 26.9517 98.9205 26.9517C97.4337 26.9517 96.1364 27.3163 95.0284 28.0455C93.9205 28.7746 93.0587 29.8447 92.4432 31.2557C91.8371 32.6667 91.5341 34.3996 91.5341 36.4545C91.5341 38.5095 91.8371 40.2424 92.4432 41.6534C93.0587 43.0644 93.9205 44.1345 95.0284 44.8636C96.1364 45.5928 97.4337 45.9574 98.9205 45.9574C100.407 45.9574 101.705 45.5928 102.812 44.8636C103.92 44.1345 104.777 43.0644 105.384 41.6534C105.999 40.2424 106.307 38.5095 106.307 36.4545Z" fill="white"/>
<path d="M126.357 51V21.9091H132.507V33.9119H144.993V21.9091H151.129V51H144.993V38.983H132.507V51H126.357ZM156.2 51V21.9091H175.803V26.9801H162.351V33.9119H174.794V38.983H162.351V45.929H175.859V51H156.2ZM180.692 51V21.9091H192.17C194.367 21.9091 196.242 22.3021 197.795 23.0881C199.357 23.8646 200.546 24.9678 201.36 26.3977C202.184 27.8182 202.596 29.4896 202.596 31.4119C202.596 33.3437 202.179 35.0057 201.346 36.3977C200.513 37.7803 199.305 38.8409 197.724 39.5795C196.152 40.3182 194.248 40.6875 192.013 40.6875H184.329V35.7443H191.019C192.193 35.7443 193.169 35.5833 193.945 35.2614C194.722 34.9394 195.299 34.4564 195.678 33.8125C196.067 33.1686 196.261 32.3684 196.261 31.4119C196.261 30.446 196.067 29.6316 195.678 28.9688C195.299 28.3059 194.717 27.804 193.931 27.4631C193.155 27.1127 192.174 26.9375 190.991 26.9375H186.843V51H180.692ZM196.403 37.7614L203.633 51H196.843L189.769 37.7614H196.403ZM206.942 51V21.9091H226.545V26.9801H213.093V33.9119H225.536V38.983H213.093V45.929H226.602V51H206.942Z" fill="#7000FF"/>
</svg>
