<svg width="452" height="85" viewBox="0 0 452 85" fill="none" xmlns="http://www.w3.org/2000/svg">
<g clip-path="url(#clip0_105_2)">
<path d="M10.5426 76H3.9517L13.9943 46.9091H21.9205L31.9489 76H25.358L18.071 53.5568H17.8438L10.5426 76ZM10.1307 64.5653H25.6989V69.3665H10.1307V64.5653ZM59.7507 57.0938H53.5291C53.4155 56.2888 53.1835 55.5739 52.8331 54.9489C52.4827 54.3144 52.0329 53.7746 51.4837 53.3295C50.9344 52.8845 50.3 52.5436 49.5803 52.3068C48.87 52.0701 48.0982 51.9517 47.2649 51.9517C45.7592 51.9517 44.4477 52.3258 43.3303 53.0739C42.2128 53.8125 41.3464 54.892 40.7308 56.3125C40.1153 57.7235 39.8075 59.4375 39.8075 61.4545C39.8075 63.5284 40.1153 65.2708 40.7308 66.6818C41.3558 68.0928 42.227 69.1581 43.3445 69.8778C44.4619 70.5975 45.7545 70.9574 47.2223 70.9574C48.0462 70.9574 48.8085 70.8485 49.5092 70.6307C50.2195 70.4129 50.8492 70.0956 51.3984 69.679C51.9477 69.2528 52.4022 68.7367 52.7621 68.1307C53.1314 67.5246 53.3871 66.8333 53.5291 66.0568L59.7507 66.0852C59.5897 67.4205 59.1873 68.7083 58.5433 69.9489C57.9089 71.1799 57.0518 72.2831 55.9723 73.2585C54.9022 74.2244 53.6238 74.9915 52.1371 75.5597C50.6598 76.1184 48.9884 76.3977 47.1229 76.3977C44.5282 76.3977 42.2081 75.8106 40.1626 74.6364C38.1267 73.4621 36.5168 71.7623 35.3331 69.5369C34.1589 67.3116 33.5717 64.6174 33.5717 61.4545C33.5717 58.2822 34.1683 55.5833 35.3615 53.358C36.5547 51.1326 38.174 49.4375 40.2195 48.2727C42.2649 47.0985 44.5661 46.5114 47.1229 46.5114C48.8085 46.5114 50.371 46.7481 51.8104 47.2216C53.2592 47.6951 54.5424 48.3864 55.6598 49.2955C56.7772 50.1951 57.6863 51.2983 58.3871 52.6051C59.0973 53.9119 59.5518 55.4081 59.7507 57.0938ZM89.8288 57.0938H83.6072C83.4936 56.2888 83.2616 55.5739 82.9112 54.9489C82.5608 54.3144 82.111 53.7746 81.5618 53.3295C81.0125 52.8845 80.3781 52.5436 79.6584 52.3068C78.9482 52.0701 78.1764 51.9517 77.343 51.9517C75.8374 51.9517 74.5258 52.3258 73.4084 53.0739C72.291 53.8125 71.4245 54.892 70.8089 56.3125C70.1934 57.7235 69.8857 59.4375 69.8857 61.4545C69.8857 63.5284 70.1934 65.2708 70.8089 66.6818C71.4339 68.0928 72.3052 69.1581 73.4226 69.8778C74.54 70.5975 75.8326 70.9574 77.3004 70.9574C78.1243 70.9574 78.8866 70.8485 79.5874 70.6307C80.2976 70.4129 80.9273 70.0956 81.4766 69.679C82.0258 69.2528 82.4804 68.7367 82.8402 68.1307C83.2095 67.5246 83.4652 66.8333 83.6072 66.0568L89.8288 66.0852C89.6679 67.4205 89.2654 68.7083 88.6214 69.9489C87.987 71.1799 87.13 72.2831 86.0504 73.2585C84.9804 74.2244 83.7019 74.9915 82.2152 75.5597C80.7379 76.1184 79.0665 76.3977 77.201 76.3977C74.6063 76.3977 72.2862 75.8106 70.2408 74.6364C68.2048 73.4621 66.5949 71.7623 65.4112 69.5369C64.237 67.3116 63.6499 64.6174 63.6499 61.4545C63.6499 58.2822 64.2464 55.5833 65.4396 53.358C66.6328 51.1326 68.2521 49.4375 70.2976 48.2727C72.343 47.0985 74.6442 46.5114 77.201 46.5114C78.8866 46.5114 80.4491 46.7481 81.8885 47.2216C83.3374 47.6951 84.6205 48.3864 85.7379 49.2955C86.8554 50.1951 87.7644 51.2983 88.4652 52.6051C89.1754 53.9119 89.63 55.4081 89.8288 57.0938ZM100.39 46.9091V76H94.2393V46.9091H100.39ZM115.763 76H105.45V46.9091H115.848C118.774 46.9091 121.293 47.4915 123.405 48.6562C125.517 49.8116 127.141 51.4735 128.277 53.642C129.423 55.8106 129.996 58.4053 129.996 61.4261C129.996 64.4564 129.423 67.0606 128.277 69.2386C127.141 71.4167 125.507 73.0881 123.376 74.2528C121.255 75.4176 118.717 76 115.763 76ZM111.601 70.7301H115.507C117.325 70.7301 118.855 70.4081 120.095 69.7642C121.345 69.1108 122.283 68.1023 122.908 66.7386C123.542 65.3655 123.859 63.5947 123.859 61.4261C123.859 59.2765 123.542 57.5199 122.908 56.1562C122.283 54.7926 121.35 53.7888 120.109 53.1449C118.869 52.5009 117.339 52.179 115.521 52.179H111.601V70.7301ZM134.552 76V46.9091H154.154V51.9801H140.702V58.9119H153.146V63.983H140.702V70.929H154.211V76H134.552ZM183.376 46.9091V76H178.064L165.408 57.6903H165.195V76H159.044V46.9091H164.442L176.999 65.2045H177.254V46.9091H183.376ZM187.35 51.9801V46.9091H211.242V51.9801H202.336V76H196.256V51.9801H187.35Z" fill="#C62630"/>
<path d="M215.177 76V46.9091H221.327V70.929H233.799V76H215.177ZM263.472 61.4545C263.472 64.6269 262.871 67.3258 261.668 69.5511C260.475 71.7765 258.846 73.4763 256.782 74.6506C254.727 75.8153 252.416 76.3977 249.85 76.3977C247.265 76.3977 244.945 75.8106 242.89 74.6364C240.835 73.4621 239.211 71.7623 238.018 69.5369C236.825 67.3116 236.228 64.6174 236.228 61.4545C236.228 58.2822 236.825 55.5833 238.018 53.358C239.211 51.1326 240.835 49.4375 242.89 48.2727C244.945 47.0985 247.265 46.5114 249.85 46.5114C252.416 46.5114 254.727 47.0985 256.782 48.2727C258.846 49.4375 260.475 51.1326 261.668 53.358C262.871 55.5833 263.472 58.2822 263.472 61.4545ZM257.237 61.4545C257.237 59.3996 256.929 57.6667 256.313 56.2557C255.707 54.8447 254.85 53.7746 253.742 53.0455C252.634 52.3163 251.337 51.9517 249.85 51.9517C248.363 51.9517 247.066 52.3163 245.958 53.0455C244.85 53.7746 243.988 54.8447 243.373 56.2557C242.767 57.6667 242.464 59.3996 242.464 61.4545C242.464 63.5095 242.767 65.2424 243.373 66.6534C243.988 68.0644 244.85 69.1345 245.958 69.8636C247.066 70.5928 248.363 70.9574 249.85 70.9574C251.337 70.9574 252.634 70.5928 253.742 69.8636C254.85 69.1345 255.707 68.0644 256.313 66.6534C256.929 65.2424 257.237 63.5095 257.237 61.4545ZM271.402 76H264.811L274.854 46.9091H282.78L292.808 76H286.217L278.93 53.5568H278.703L271.402 76ZM270.99 64.5653H286.558V69.3665H270.99V64.5653ZM320.642 46.9091V76H315.33L302.673 57.6903H302.46V76H296.31V46.9091H301.707L314.264 65.2045H314.52V46.9091H320.642ZM351.391 57.0938H345.17C345.056 56.2888 344.824 55.5739 344.474 54.9489C344.123 54.3144 343.674 53.7746 343.124 53.3295C342.575 52.8845 341.941 52.5436 341.221 52.3068C340.511 52.0701 339.739 51.9517 338.906 51.9517C337.4 51.9517 336.088 52.3258 334.971 53.0739C333.853 53.8125 332.987 54.892 332.371 56.3125C331.756 57.7235 331.448 59.4375 331.448 61.4545C331.448 63.5284 331.756 65.2708 332.371 66.6818C332.996 68.0928 333.868 69.1581 334.985 69.8778C336.103 70.5975 337.395 70.9574 338.863 70.9574C339.687 70.9574 340.449 70.8485 341.15 70.6307C341.86 70.4129 342.49 70.0956 343.039 69.679C343.588 69.2528 344.043 68.7367 344.403 68.1307C344.772 67.5246 345.028 66.8333 345.17 66.0568L351.391 66.0852C351.23 67.4205 350.828 68.7083 350.184 69.9489C349.549 71.1799 348.692 72.2831 347.613 73.2585C346.543 74.2244 345.264 74.9915 343.778 75.5597C342.3 76.1184 340.629 76.3977 338.763 76.3977C336.169 76.3977 333.849 75.8106 331.803 74.6364C329.767 73.4621 328.157 71.7623 326.974 69.5369C325.799 67.3116 325.212 64.6174 325.212 61.4545C325.212 58.2822 325.809 55.5833 327.002 53.358C328.195 51.1326 329.815 49.4375 331.86 48.2727C333.906 47.0985 336.207 46.5114 338.763 46.5114C340.449 46.5114 342.012 46.7481 343.451 47.2216C344.9 47.6951 346.183 48.3864 347.3 49.2955C348.418 50.1951 349.327 51.2983 350.028 52.6051C350.738 53.9119 351.192 55.4081 351.391 57.0938ZM360.269 76H353.678L363.721 46.9091H371.647L381.675 76H375.085L367.798 53.5568H367.57L360.269 76ZM359.857 64.5653H375.425V69.3665H359.857V64.5653ZM385.177 76V46.9091H396.654C398.851 46.9091 400.726 47.3021 402.279 48.0881C403.842 48.8646 405.03 49.9678 405.844 51.3977C406.668 52.8182 407.08 54.4896 407.08 56.4119C407.08 58.3437 406.664 60.0057 405.83 61.3977C404.997 62.7803 403.79 63.8409 402.208 64.5795C400.636 65.3182 398.733 65.6875 396.498 65.6875H388.813V60.7443H395.504C396.678 60.7443 397.653 60.5833 398.43 60.2614C399.206 59.9394 399.784 59.4564 400.163 58.8125C400.551 58.1686 400.745 57.3684 400.745 56.4119C400.745 55.446 400.551 54.6316 400.163 53.9688C399.784 53.3059 399.201 52.804 398.415 52.4631C397.639 52.1127 396.659 51.9375 395.475 51.9375H391.327V76H385.177ZM400.887 62.7614L408.117 76H401.327L394.254 62.7614H400.887ZM427.208 55.2756C427.094 54.1297 426.607 53.2396 425.745 52.6051C424.883 51.9706 423.714 51.6534 422.237 51.6534C421.233 51.6534 420.385 51.7955 419.694 52.0795C419.003 52.3542 418.472 52.7377 418.103 53.2301C417.743 53.7225 417.563 54.2812 417.563 54.9062C417.544 55.4271 417.653 55.8816 417.89 56.2699C418.136 56.6581 418.472 56.9943 418.898 57.2784C419.325 57.553 419.817 57.7945 420.376 58.0028C420.934 58.2017 421.531 58.3722 422.165 58.5142L424.779 59.1392C426.048 59.4233 427.213 59.8021 428.273 60.2756C429.334 60.7491 430.253 61.3314 431.029 62.0227C431.806 62.714 432.407 63.5284 432.833 64.4659C433.269 65.4034 433.491 66.4782 433.501 67.6903C433.491 69.4706 433.037 71.0142 432.137 72.321C431.247 73.6184 429.959 74.6269 428.273 75.3466C426.597 76.0568 424.576 76.4119 422.208 76.4119C419.86 76.4119 417.814 76.0521 416.072 75.3324C414.339 74.6127 412.985 73.5473 412.009 72.1364C411.043 70.7159 410.537 68.9593 410.489 66.8665H416.441C416.507 67.8419 416.787 68.6562 417.279 69.3097C417.781 69.9536 418.449 70.4413 419.282 70.7727C420.125 71.0947 421.076 71.2557 422.137 71.2557C423.179 71.2557 424.083 71.1042 424.85 70.8011C425.627 70.4981 426.228 70.0767 426.654 69.5369C427.08 68.9972 427.293 68.3769 427.293 67.6761C427.293 67.0227 427.099 66.4735 426.711 66.0284C426.332 65.5833 425.773 65.2045 425.035 64.892C424.306 64.5795 423.411 64.2955 422.35 64.0398L419.183 63.2443C416.73 62.6477 414.793 61.715 413.373 60.446C411.952 59.1771 411.247 57.4678 411.256 55.3182C411.247 53.5568 411.716 52.018 412.663 50.7017C413.619 49.3854 414.931 48.358 416.597 47.6193C418.264 46.8807 420.158 46.5114 422.279 46.5114C424.438 46.5114 426.323 46.8807 427.933 47.6193C429.552 48.358 430.811 49.3854 431.711 50.7017C432.611 52.018 433.075 53.5426 433.103 55.2756H427.208Z" fill="#262626"/>
<path d="M3 37.5H80.5L95.0433 26.4558C126.618 2.47776 169.378 -0.581667 204.045 18.6567L215.364 24.9384C230.21 33.177 246.909 37.5 263.888 37.5H426.569C445.814 37.5 455.725 60.519 442.5 74.5V74.5" stroke="#C62630" stroke-width="5" stroke-linecap="round"/>
</g>
<defs>
<clipPath id="clip0_105_2">
<rect width="452" height="85" fill="white"/>
</clipPath>
</defs>
</svg>
